<svg width="1924" height="458" viewBox="0 0 1924 458" fill="none" xmlns="http://www.w3.org/2000/svg">
<path d="M26.888 214.403H16.3849V177.086C16.3849 176.14 15.6497 175.411 14.7569 175.411C13.8379 175.411 13.1289 176.167 13.1289 177.086V214.403H2.62579C1.1816 214.403 0 215.618 0 217.103V247.751C0 249.236 1.1816 250.451 2.62579 250.451H13.1289V272.593C13.1289 273.512 13.8642 274.268 14.7569 274.268C15.6759 274.268 16.3849 273.512 16.3849 272.593V250.451H26.888C28.3322 250.451 29.5138 249.236 29.5138 247.751V217.103C29.5138 215.618 28.3322 214.403 26.888 214.403Z" fill="#BBBBBB" fill-opacity="0.09"/>
<path d="M240.968 30.219H230.465V14.6385C230.465 13.7204 229.73 12.9644 228.837 12.9644C227.918 12.9644 227.209 13.7204 227.209 14.6385V30.219H216.706C215.262 30.219 214.08 31.4341 214.08 32.9192V72.532C214.08 74.0171 215.262 75.2322 216.706 75.2322H227.209V97.3743C227.209 98.3194 227.944 99.0484 228.837 99.0484C229.756 99.0484 230.465 98.2924 230.465 97.3743V75.2322H240.968C242.412 75.2322 243.594 74.0171 243.594 72.532V32.9192C243.594 31.4341 242.412 30.219 240.968 30.219Z" fill="#BBBBBB" fill-opacity="0.09"/>
<path d="M285.868 82.1985H275.365V45.637C275.365 44.719 274.63 43.9629 273.737 43.9629C272.818 43.9629 272.109 44.719 272.109 45.637V82.1985H261.606C260.162 82.1985 258.98 83.4136 258.98 84.8987V102.261C258.98 103.747 260.162 104.962 261.606 104.962H272.109V137.905C272.109 138.85 272.845 139.579 273.737 139.579C274.656 139.579 275.365 138.823 275.365 137.905V104.962H285.868C287.313 104.962 288.494 103.747 288.494 102.261V84.8987C288.494 83.3866 287.339 82.1985 285.868 82.1985Z" fill="#BBBBBB" fill-opacity="0.09"/>
<path d="M327.724 103.612H317.221V56.0062C317.221 55.0881 316.485 54.332 315.593 54.332C314.7 54.332 313.965 55.0881 313.965 56.0062V103.612H303.461C302.017 103.612 300.836 104.827 300.836 106.312V231.955C300.836 233.44 302.017 234.655 303.461 234.655H313.965V301.108C313.965 302.026 314.7 302.782 315.593 302.782C316.485 302.782 317.221 302.026 317.221 301.108V234.655H327.724C329.168 234.655 330.349 233.44 330.349 231.955V106.312C330.349 104.827 329.168 103.612 327.724 103.612Z" fill="#BBBBBB" fill-opacity="0.09"/>
<path d="M369.552 238.381H359.049V224.88C359.049 223.935 358.314 223.206 357.421 223.206C356.528 223.206 355.793 223.962 355.793 224.88V238.381H345.29C343.846 238.381 342.664 239.597 342.664 241.082V380.01C342.664 381.495 343.846 382.71 345.29 382.71H355.793V427.993C355.793 428.938 356.528 429.667 357.421 429.667C358.314 429.667 359.049 428.911 359.049 427.993V382.71H369.552C370.996 382.71 372.178 381.495 372.178 380.01V241.082C372.178 239.57 370.996 238.381 369.552 238.381Z" fill="#BBBBBB" fill-opacity="0.09"/>
<path d="M416.318 380.199H405.815V373.826C405.815 372.881 405.079 372.152 404.187 372.152C403.268 372.152 402.559 372.908 402.559 373.826V380.199H392.055C390.611 380.199 389.43 381.414 389.43 382.899V398.345C389.43 399.83 390.611 401.045 392.055 401.045H402.559V423.187C402.559 424.105 403.294 424.861 404.187 424.861C405.106 424.861 405.815 424.105 405.815 423.187V401.045H416.318C417.762 401.045 418.944 399.83 418.944 398.345V382.899C418.944 381.414 417.762 380.199 416.318 380.199Z" fill="#BBBBBB" fill-opacity="0.09"/>
<path d="M586.732 279.614H576.229V249.884C576.229 248.966 575.493 248.21 574.601 248.21C573.682 248.21 572.973 248.966 572.973 249.884V279.614H562.47C561.025 279.614 559.844 280.829 559.844 282.314V339.83C559.844 341.315 561.025 342.53 562.47 342.53H572.973V364.672C572.973 365.617 573.708 366.346 574.601 366.346C575.52 366.346 576.229 365.59 576.229 364.672V342.53H586.732C588.176 342.53 589.358 341.315 589.358 339.83V282.314C589.358 280.829 588.176 279.614 586.732 279.614Z" fill="#BBBBBB" fill-opacity="0.09"/>
<path d="M673.46 332.647H662.957V282.855C662.957 281.909 662.222 281.18 661.329 281.18C660.41 281.18 659.701 281.936 659.701 282.855V332.647H649.198C647.754 332.647 646.572 333.862 646.572 335.347V427.75C646.572 429.235 647.754 430.45 649.198 430.45H659.701V452.592C659.701 453.511 660.436 454.267 661.329 454.267C662.248 454.267 662.957 453.511 662.957 452.592V430.45H673.46C674.905 430.45 676.086 429.235 676.086 427.75V335.347C676.086 333.862 674.905 332.647 673.46 332.647Z" fill="#BBBBBB" fill-opacity="0.09"/>
<path d="M886.939 109.552H876.436V88.1661C876.436 87.248 875.7 86.4919 874.808 86.4919C873.889 86.4919 873.18 87.248 873.18 88.1661V109.552H862.677C861.232 109.552 860.051 110.767 860.051 112.252V175.033C860.051 176.518 861.232 177.734 862.677 177.734H873.18V233.197C873.18 234.115 873.915 234.871 874.808 234.871C875.727 234.871 876.436 234.115 876.436 233.197V177.707H886.939C888.383 177.707 889.565 176.491 889.565 175.006V112.252C889.565 110.767 888.383 109.552 886.939 109.552Z" fill="#BBBBBB" fill-opacity="0.09"/>
<path d="M933.074 186.806H922.57V145.357C922.57 144.439 921.835 143.683 920.942 143.683C920.023 143.683 919.314 144.439 919.314 145.357V186.806H908.811C907.367 186.806 906.186 188.022 906.186 189.507V222.774C906.186 224.259 907.367 225.474 908.811 225.474H919.314V254.34C919.314 255.285 920.05 256.014 920.942 256.014C921.861 256.014 922.57 255.258 922.57 254.34V225.474H933.074C934.518 225.474 935.699 224.259 935.699 222.774V189.507C935.699 188.022 934.544 186.806 933.074 186.806Z" fill="#BBBBBB" fill-opacity="0.09"/>
<path d="M971.068 228.336H960.565V222.45C960.565 221.505 959.829 220.776 958.937 220.776C958.018 220.776 957.309 221.532 957.309 222.45V228.336H946.805C945.361 228.336 944.18 229.551 944.18 231.037V248.426C944.18 249.911 945.361 251.126 946.805 251.126H957.309V273.269C957.309 274.187 958.044 274.943 958.937 274.943C959.856 274.943 960.565 274.187 960.565 273.269V251.126H971.068C972.512 251.126 973.694 249.911 973.694 248.426V231.037C973.694 229.551 972.512 228.336 971.068 228.336Z" fill="#BBBBBB" fill-opacity="0.09"/>
<path d="M1102.73 150.758H1092.22V116.357C1092.22 115.439 1091.49 114.683 1090.6 114.683C1089.68 114.683 1088.97 115.439 1088.97 116.357V150.731H1078.46C1077.02 150.731 1075.84 151.946 1075.84 153.431V199.984C1075.84 201.469 1077.02 202.684 1078.46 202.684H1088.97V247.832C1088.97 248.75 1089.7 249.507 1090.6 249.507C1091.49 249.507 1092.22 248.75 1092.22 247.832V202.684H1102.73C1104.17 202.684 1105.35 201.469 1105.35 199.984V153.459C1105.35 151.946 1104.17 150.758 1102.73 150.758Z" fill="#BBBBBB" fill-opacity="0.09"/>
<path d="M1145.79 210.299H1135.28V186.806C1135.28 185.888 1134.55 185.132 1133.65 185.132C1132.74 185.132 1132.03 185.888 1132.03 186.806V210.299H1121.52C1120.08 210.299 1118.9 211.514 1118.9 212.999V243.674C1118.9 245.159 1120.08 246.374 1121.52 246.374H1132.03V268.516C1132.03 269.434 1132.76 270.19 1133.65 270.19C1134.55 270.19 1135.28 269.434 1135.28 268.516V246.374H1145.79C1147.23 246.374 1148.41 245.159 1148.41 243.674V212.999C1148.41 211.514 1147.23 210.299 1145.79 210.299Z" fill="#BBBBBB" fill-opacity="0.09"/>
<path d="M1190.69 249.128H1180.19V206.14C1180.19 205.222 1179.45 204.466 1178.56 204.466C1177.64 204.466 1176.93 205.222 1176.93 206.14V249.128H1166.43C1164.98 249.128 1163.8 250.343 1163.8 251.829V339.83C1163.8 341.315 1164.98 342.53 1166.43 342.53H1176.93V364.672C1176.93 365.59 1177.66 366.346 1178.56 366.346C1179.45 366.346 1180.19 365.59 1180.19 364.672V342.53H1190.69C1192.13 342.53 1193.31 341.315 1193.31 339.83V251.829C1193.31 250.343 1192.13 249.128 1190.69 249.128Z" fill="#BBBBBB" fill-opacity="0.09"/>
<path d="M1274.35 193.773H1263.84V131.451C1263.84 130.506 1263.11 129.777 1262.22 129.777C1261.32 129.777 1260.59 130.533 1260.59 131.451V193.746H1250.08C1248.64 193.746 1247.46 194.961 1247.46 196.446V379.983C1247.46 381.468 1248.64 382.683 1250.08 382.683H1260.59V404.825C1260.59 405.743 1261.32 406.499 1262.22 406.499C1263.13 406.499 1263.84 405.743 1263.84 404.825V382.683H1274.35C1275.79 382.683 1276.97 381.468 1276.97 379.983V196.446C1276.97 194.988 1275.82 193.773 1274.35 193.773Z" fill="#BBBBBB" fill-opacity="0.09"/>
<path d="M1490.47 219.398H1479.97V206.14C1479.97 205.222 1479.24 204.466 1478.34 204.466C1477.42 204.466 1476.72 205.222 1476.72 206.14V219.398H1466.21C1464.77 219.398 1463.59 220.614 1463.59 222.099V247.778C1463.59 249.263 1464.77 250.478 1466.21 250.478H1476.72V272.62C1476.72 273.539 1477.45 274.295 1478.34 274.295C1479.24 274.295 1479.97 273.539 1479.97 272.62V250.478H1490.47C1491.92 250.478 1493.1 249.263 1493.1 247.778V222.099C1493.1 220.587 1491.92 219.398 1490.47 219.398Z" fill="#BBBBBB" fill-opacity="0.09"/>
<path d="M1623.36 93.8907H1612.86V77.4461C1612.86 76.501 1612.13 75.772 1611.23 75.772C1610.34 75.772 1609.61 76.5281 1609.61 77.4461V93.8907H1599.1C1597.66 93.8907 1596.48 95.1058 1596.48 96.5909V122.513C1596.48 123.999 1597.66 125.214 1599.1 125.214H1609.61V161.856C1609.61 162.801 1610.34 163.53 1611.23 163.53C1612.15 163.53 1612.86 162.774 1612.86 161.856V125.214H1623.36C1624.81 125.214 1625.99 123.999 1625.99 122.513V96.5909C1625.99 95.1058 1624.81 93.8907 1623.36 93.8907Z" fill="#BBBBBB" fill-opacity="0.09"/>
<path d="M1748.85 54.8451H1738.35V30.1378C1738.35 29.2197 1737.61 28.4636 1736.72 28.4636C1735.83 28.4636 1735.09 29.2197 1735.09 30.1378V54.8451H1724.59C1723.14 54.8451 1721.96 56.0602 1721.96 57.5454V69.0484C1721.96 70.5336 1723.14 71.7487 1724.59 71.7487H1735.09V93.8908C1735.09 94.8089 1735.83 95.5649 1736.72 95.5649C1737.64 95.5649 1738.35 94.8089 1738.35 93.8908V71.7487H1748.85C1750.3 71.7487 1751.48 70.5336 1751.48 69.0484V57.5454C1751.48 56.0602 1750.3 54.8451 1748.85 54.8451Z" fill="#BBBBBB" fill-opacity="0.09"/>
<path d="M1791.31 70.3986H1780.81V47.6624C1780.81 46.7443 1780.07 45.9883 1779.18 45.9883C1778.26 45.9883 1777.55 46.7443 1777.55 47.6624V70.3986H1767.05C1765.61 70.3986 1764.42 71.6137 1764.42 73.0988V107.959C1764.42 109.444 1765.61 110.659 1767.05 110.659H1777.55V161.856C1777.55 162.801 1778.29 163.53 1779.18 163.53C1780.07 163.53 1780.81 162.774 1780.81 161.856V110.659H1791.31C1792.76 110.659 1793.94 109.444 1793.94 107.959V73.0988C1793.94 71.6137 1792.76 70.3986 1791.31 70.3986Z" fill="#BBBBBB" fill-opacity="0.09"/>
<path d="M1837.45 104.341H1826.94V99.5885C1826.94 98.6704 1826.21 97.9143 1825.32 97.9143C1824.4 97.9143 1823.69 98.6704 1823.69 99.5885V104.341H1813.18C1811.74 104.341 1810.56 105.556 1810.56 107.041V137.689C1810.56 139.174 1811.74 140.389 1813.18 140.389H1823.69V209.624C1823.69 210.569 1824.42 211.298 1825.32 211.298C1826.21 211.298 1826.94 210.542 1826.94 209.624V140.389H1837.45C1838.89 140.389 1840.07 139.174 1840.07 137.689V107.041C1840.07 105.529 1838.89 104.341 1837.45 104.341Z" fill="#BBBBBB" fill-opacity="0.09"/>
<path d="M1876.2 188.157H1865.7V171.55C1865.7 170.605 1864.96 169.876 1864.07 169.876C1863.18 169.876 1862.44 170.632 1862.44 171.55V188.157H1851.94C1850.49 188.157 1849.31 189.372 1849.31 190.857V222.774C1849.31 224.259 1850.49 225.474 1851.94 225.474H1862.44V294.358C1862.44 295.303 1863.18 296.032 1864.07 296.032C1864.99 296.032 1865.7 295.276 1865.7 294.358V225.474H1876.2C1877.65 225.474 1878.83 224.259 1878.83 222.774V190.857C1878.83 189.372 1877.65 188.157 1876.2 188.157Z" fill="#BBBBBB" fill-opacity="0.09"/>
<path d="M1921.13 225.474H1910.63V178.355C1910.63 177.437 1909.89 176.681 1909 176.681C1908.11 176.681 1907.37 177.437 1907.37 178.355V225.501H1896.87C1895.42 225.501 1894.24 226.716 1894.24 228.202V265.816C1894.24 267.301 1895.42 268.516 1896.87 268.516H1907.37V290.658C1907.37 291.603 1908.11 292.333 1909 292.333C1909.92 292.333 1910.63 291.576 1910.63 290.658V268.516H1921.13C1922.57 268.516 1923.76 267.301 1923.76 265.816V228.202C1923.76 226.689 1922.57 225.474 1921.13 225.474Z" fill="#BBBBBB" fill-opacity="0.09"/>
<path d="M69.9505 172.901H59.4474V159.696C59.4474 158.751 58.7122 158.022 57.8194 158.022C56.9004 158.022 56.1914 158.778 56.1914 159.696V172.901H45.6883C44.2441 172.901 43.0625 174.116 43.0625 175.601V211.73C43.0625 213.215 44.2441 214.431 45.6883 214.431H56.1914V236.573C56.1914 237.518 56.9266 238.247 57.8194 238.247C58.7384 238.247 59.4474 237.491 59.4474 236.573V214.431H69.9505C71.3947 214.431 72.5763 213.215 72.5763 211.73V175.601C72.5763 174.089 71.3947 172.901 69.9505 172.901Z" fill="#BBBBBB" fill-opacity="0.09"/>
<path d="M112.382 107.825H101.879V51.3892C101.879 50.4442 101.144 49.7151 100.251 49.7151C99.3583 49.7151 98.6231 50.4712 98.6231 51.3892V107.825H88.1199C86.6757 107.825 85.4941 109.04 85.4941 110.525V171.551C85.4941 173.036 86.6757 174.251 88.1199 174.251H98.6231V207.356C98.6231 208.301 99.3583 209.03 100.251 209.03C101.144 209.03 101.879 208.274 101.879 207.356V174.251H112.382C113.826 174.251 115.008 173.036 115.008 171.551V110.525C115.008 109.013 113.826 107.825 112.382 107.825Z" fill="#BBBBBB" fill-opacity="0.09"/>
<path d="M155.447 51.3891H144.944V1.83944C144.944 0.894349 144.208 0.165283 143.316 0.165283C142.396 0.165283 141.688 0.921351 141.688 1.83944V51.3891H131.184C129.74 51.3891 128.559 52.6042 128.559 54.0893V105.124C128.559 106.609 129.74 107.824 131.184 107.824H141.688V150.947C141.688 151.893 142.423 152.622 143.316 152.622C144.235 152.622 144.944 151.866 144.944 150.947V107.824H155.447C156.891 107.824 158.072 106.609 158.072 105.124V54.0893C158.072 52.5772 156.917 51.3891 155.447 51.3891Z" fill="#BBBBBB" fill-opacity="0.09"/>
<path d="M199.742 28.869H188.031L187.348 7.83404C187.322 6.88895 186.586 6.18689 185.641 6.21389C184.748 6.24089 184.013 7.02397 184.066 7.96906L184.748 28.896H175.479C174.035 28.896 172.854 30.1111 172.854 31.5963V46.9337C172.854 48.4189 174.035 49.634 175.479 49.634H185.431L185.982 66.3755C186.009 67.2936 186.744 67.9957 187.61 67.9957C187.637 67.9957 187.637 67.9957 187.663 67.9957C188.556 67.9687 189.291 67.1856 189.238 66.2405L188.687 49.607H199.742C201.186 49.607 202.367 48.3919 202.367 46.9067V31.5693C202.367 30.0841 201.186 28.869 199.742 28.869Z" fill="#BBBBBB" fill-opacity="0.09"/>
<path d="M458.146 301.136H447.643V238.382C447.643 237.464 446.907 236.708 446.015 236.708C445.122 236.708 444.387 237.464 444.387 238.382V301.136H433.884C432.439 301.136 431.258 302.351 431.258 303.836V398.372C431.258 399.857 432.439 401.072 433.884 401.072H444.387V433.151C444.387 434.069 445.122 434.825 446.015 434.825C446.907 434.825 447.643 434.069 447.643 433.151V401.072H458.146C459.59 401.072 460.772 399.857 460.772 398.372V303.836C460.772 302.324 459.59 301.136 458.146 301.136Z" fill="#BBBBBB" fill-opacity="0.09"/>
<path d="M501.815 278.858H491.128V251.693C491.128 250.775 490.393 250.019 489.5 250.019C488.607 250.019 487.872 250.775 487.872 251.693V278.858H477.579C476.135 278.858 474.953 280.073 474.953 281.558V295.546C474.953 297.031 476.135 298.246 477.579 298.246H487.872V320.388C487.872 321.306 488.607 322.062 489.5 322.062C490.393 322.062 491.128 321.306 491.128 320.388V298.246H501.815C503.259 298.246 504.441 297.031 504.441 295.546V281.558C504.441 280.073 503.259 278.858 501.815 278.858Z" fill="#BBBBBB" fill-opacity="0.09"/>
<path d="M541.804 261.442H531.301V248.022C531.301 247.076 530.566 246.347 529.673 246.347C528.78 246.347 528.045 247.103 528.045 248.022V261.442H517.542C516.098 261.442 514.916 262.657 514.916 264.142V273.404C514.916 274.889 516.098 276.104 517.542 276.104H528.045V298.246C528.045 299.191 528.78 299.92 529.673 299.92C530.566 299.92 531.301 299.164 531.301 298.246V276.104H541.804C543.248 276.104 544.43 274.889 544.43 273.404V264.142C544.43 262.657 543.248 261.442 541.804 261.442Z" fill="#BBBBBB" fill-opacity="0.09"/>
<path d="M629.165 323.143H618.662V301.109C618.662 300.191 617.927 299.435 617.034 299.435C616.115 299.435 615.406 300.191 615.406 301.109V323.143H604.903C603.459 323.143 602.277 324.358 602.277 325.843V339.83C602.277 341.316 603.459 342.531 604.903 342.531H615.406V364.673C615.406 365.618 616.141 366.347 617.034 366.347C617.953 366.347 618.662 365.591 618.662 364.673V342.531H629.165C630.61 342.531 631.791 341.316 631.791 339.83V325.843C631.791 324.358 630.61 323.143 629.165 323.143Z" fill="#BBBBBB" fill-opacity="0.09"/>
<path d="M715.921 345.285H705.418V332.89C705.418 331.972 704.683 331.216 703.79 331.216C702.897 331.216 702.162 331.972 702.162 332.89V345.285H691.659C690.215 345.285 689.033 346.5 689.033 347.985V430.91C689.033 432.395 690.215 433.61 691.659 433.61H702.162V455.752C702.162 456.697 702.897 457.426 703.79 457.426C704.683 457.426 705.418 456.67 705.418 455.752V433.61H715.921C717.365 433.61 718.547 432.395 718.547 430.91V347.985C718.547 346.5 717.365 345.285 715.921 345.285Z" fill="#BBBBBB" fill-opacity="0.09"/>
<path d="M760.216 219.399H749.713V185.106C749.713 184.188 748.978 183.432 748.085 183.432C747.166 183.432 746.457 184.188 746.457 185.106V219.399H735.954C734.51 219.399 733.328 220.614 733.328 222.099V339.83C733.328 341.315 734.51 342.531 735.954 342.531H746.457V402.8C746.457 403.745 747.192 404.474 748.085 404.474C749.004 404.474 749.713 403.718 749.713 402.8V342.531H760.216C761.66 342.531 762.842 341.315 762.842 339.83V222.099C762.842 220.587 761.66 219.399 760.216 219.399Z" fill="#BBBBBB" fill-opacity="0.09"/>
<path d="M803.28 204.79H792.593V186.213C792.593 185.268 791.858 184.539 790.965 184.539C790.046 184.539 789.337 185.295 789.337 186.213V204.79H779.044C777.6 204.79 776.418 206.006 776.418 207.491V215.186C776.418 216.672 777.6 217.887 779.044 217.887H789.337V240.029C789.337 240.947 790.072 241.703 790.965 241.703C791.884 241.703 792.593 240.947 792.593 240.029V217.887H803.28C804.724 217.887 805.906 216.672 805.906 215.186V207.491C805.906 206.006 804.724 204.79 803.28 204.79Z" fill="#BBBBBB" fill-opacity="0.09"/>
<path d="M844.505 113.414H834.002V54.7645C834.002 53.8194 833.267 53.0903 832.374 53.0903C831.455 53.0903 830.746 53.8464 830.746 54.7645V113.414H820.243C818.799 113.414 817.617 114.629 817.617 116.114V200.011C817.617 201.496 818.799 202.711 820.243 202.711H830.746V224.853C830.746 225.799 831.481 226.528 832.374 226.528C833.293 226.528 834.002 225.772 834.002 224.853V202.711H844.505C845.949 202.711 847.131 201.496 847.131 200.011V116.114C847.131 114.629 845.949 113.414 844.505 113.414Z" fill="#BBBBBB" fill-opacity="0.09"/>
<path d="M1018.44 165.286H1007.94V113.414C1007.94 112.496 1007.2 111.74 1006.31 111.74C1005.39 111.74 1004.68 112.496 1004.68 113.414V165.286H994.177C992.732 165.286 991.551 166.501 991.551 167.986V218.022C991.551 219.507 992.732 220.722 994.177 220.722H1004.68V242.864C1004.68 243.782 1005.41 244.538 1006.31 244.538C1007.2 244.538 1007.94 243.782 1007.94 242.864V220.722H1018.44C1019.88 220.722 1021.06 219.507 1021.06 218.022V167.986C1021.06 166.501 1019.88 165.286 1018.44 165.286Z" fill="#BBBBBB" fill-opacity="0.09"/>
<path d="M1059.66 149.408H1049.16V129.345C1049.16 128.427 1048.42 127.671 1047.53 127.671C1046.61 127.671 1045.9 128.427 1045.9 129.345V149.408H1035.4C1033.96 149.408 1032.77 150.623 1032.77 152.108V164.584C1032.77 166.069 1033.96 167.284 1035.4 167.284H1045.9V189.426C1045.9 190.344 1046.64 191.1 1047.53 191.1C1048.42 191.1 1049.16 190.344 1049.16 189.426V167.284H1059.66C1061.11 167.284 1062.29 166.069 1062.29 164.584V152.108C1062.29 150.596 1061.11 149.408 1059.66 149.408Z" fill="#BBBBBB" fill-opacity="0.09"/>
<path d="M1232.52 198.499H1222.01V145.358C1222.01 144.44 1221.28 143.684 1220.39 143.684C1219.49 143.684 1218.76 144.44 1218.76 145.358V198.499H1208.25C1206.81 198.499 1205.63 199.714 1205.63 201.199V339.803C1205.63 341.288 1206.81 342.504 1208.25 342.504H1218.76V364.646C1218.76 365.564 1219.49 366.32 1220.39 366.32C1221.3 366.32 1222.01 365.564 1222.01 364.646V342.504H1232.52C1233.96 342.504 1235.14 341.288 1235.14 339.803V201.199C1235.14 199.714 1233.96 198.499 1232.52 198.499Z" fill="#BBBBBB" fill-opacity="0.09"/>
<path d="M1321.11 281.018H1310.61V257.418C1310.61 256.473 1309.87 255.744 1308.98 255.744C1308.08 255.744 1307.35 256.5 1307.35 257.418V281.018H1296.85C1295.4 281.018 1294.22 282.233 1294.22 283.719V387.597C1294.22 389.082 1295.4 390.298 1296.85 390.298H1307.35V412.44C1307.35 413.358 1308.08 414.114 1308.98 414.114C1309.9 414.114 1310.61 413.358 1310.61 412.44V390.298H1321.11C1322.55 390.298 1323.73 389.082 1323.73 387.597V283.719C1323.73 282.206 1322.55 281.018 1321.11 281.018Z" fill="#BBBBBB" fill-opacity="0.09"/>
<path d="M1363.12 249.75H1352.62V228.31C1352.62 227.392 1351.88 226.635 1350.99 226.635C1350.1 226.635 1349.36 227.392 1349.36 228.31V249.75H1338.86C1337.42 249.75 1336.23 250.965 1336.23 252.45V274.025C1336.23 275.51 1337.42 276.725 1338.86 276.725H1349.36V311.018C1349.36 311.964 1350.1 312.693 1350.99 312.693C1351.91 312.693 1352.62 311.937 1352.62 311.018V276.725H1363.12C1364.57 276.725 1365.75 275.51 1365.75 274.025V252.45C1365.75 250.965 1364.57 249.75 1363.12 249.75Z" fill="#BBBBBB" fill-opacity="0.09"/>
<path d="M1404.95 219.399H1394.45V212.108C1394.45 211.19 1393.71 210.434 1392.82 210.434C1391.9 210.434 1391.19 211.19 1391.19 212.108V219.372H1380.69C1379.25 219.372 1378.06 220.587 1378.06 222.072V248.4C1378.06 249.885 1379.25 251.1 1380.69 251.1H1391.19V273.242C1391.19 274.16 1391.93 274.916 1392.82 274.916C1393.71 274.916 1394.45 274.16 1394.45 273.242V251.1H1404.95C1406.4 251.1 1407.58 249.885 1407.58 248.4V222.072C1407.58 220.587 1406.4 219.399 1404.95 219.399Z" fill="#BBBBBB" fill-opacity="0.09"/>
<path d="M1448.01 198.499H1437.51V182.108C1437.51 181.163 1436.78 180.434 1435.88 180.434C1434.99 180.434 1434.26 181.19 1434.26 182.108V198.499H1423.75C1422.31 198.499 1421.13 199.714 1421.13 201.199V218.022C1421.13 219.507 1422.31 220.722 1423.75 220.722H1434.26V242.864C1434.26 243.809 1434.99 244.538 1435.88 244.538C1436.8 244.538 1437.51 243.782 1437.51 242.864V220.722H1448.01C1449.46 220.722 1450.64 219.507 1450.64 218.022V201.199C1450.64 199.714 1449.46 198.499 1448.01 198.499Z" fill="#BBBBBB" fill-opacity="0.09"/>
<path d="M1535.37 188.157H1524.87V158.346C1524.87 157.428 1524.14 156.672 1523.24 156.672C1522.35 156.672 1521.62 157.428 1521.62 158.346V188.157H1511.11C1509.67 188.157 1508.49 189.372 1508.49 190.857V247.779C1508.49 249.264 1509.67 250.479 1511.11 250.479H1521.62V291.388C1521.62 292.306 1522.35 293.062 1523.24 293.062C1524.16 293.062 1524.87 292.306 1524.87 291.388V250.479H1535.37C1536.82 250.479 1538 249.264 1538 247.779V190.857C1538 189.372 1536.82 188.157 1535.37 188.157Z" fill="#BBBBBB" fill-opacity="0.09"/>
<path d="M1576.6 98.2384H1566.1V65.1063C1566.1 64.1612 1565.36 63.4321 1564.47 63.4321C1563.58 63.4321 1562.84 64.1882 1562.84 65.1063V98.2384H1552.34C1550.89 98.2384 1549.71 99.4535 1549.71 100.939V185.457C1549.71 186.942 1550.89 188.157 1552.34 188.157H1562.84V232.144C1562.84 233.089 1563.58 233.818 1564.47 233.818C1565.39 233.818 1566.1 233.062 1566.1 232.144V188.157H1576.6C1578.04 188.157 1579.22 186.942 1579.22 185.457V100.939C1579.22 99.4535 1578.04 98.2384 1576.6 98.2384Z" fill="#BBBBBB" fill-opacity="0.09"/>
<path d="M1664.56 102.991H1654.06V77.4461C1654.06 76.501 1653.33 75.772 1652.43 75.772C1651.54 75.772 1650.8 76.5281 1650.8 77.4461V102.991H1640.3C1638.86 102.991 1637.68 104.206 1637.68 105.691V122.513C1637.68 123.999 1638.86 125.214 1640.3 125.214H1650.8V147.356C1650.8 148.301 1651.54 149.03 1652.43 149.03C1653.35 149.03 1654.06 148.274 1654.06 147.356V125.214H1664.56C1666.01 125.214 1667.19 123.999 1667.19 122.513V105.691C1667.19 104.179 1666.03 102.991 1664.56 102.991Z" fill="#BBBBBB" fill-opacity="0.09"/>
<path d="M1706.42 53.4951H1695.91V22.9823C1695.91 22.0372 1695.18 21.3081 1694.29 21.3081C1693.37 21.3081 1692.66 22.0642 1692.66 22.9823V53.4951H1682.16C1680.71 53.4951 1679.53 54.7102 1679.53 56.1954V100.372C1679.53 101.857 1680.71 103.072 1682.16 103.072H1692.66V135.556C1692.66 136.474 1693.39 137.23 1694.29 137.23C1695.18 137.23 1695.91 136.474 1695.91 135.556V103.072H1706.42C1707.86 103.072 1709.04 101.857 1709.04 100.372V56.1954C1709.04 54.7102 1707.86 53.4951 1706.42 53.4951Z" fill="#BBBBBB" fill-opacity="0.09"/>
</svg>
