<svg xmlns="http://www.w3.org/2000/svg" width="1075" height="462" fill="none"><path fill="#E2DE4E" d="M895.644 213.405c5.676 0 12.487-4.54 15.325-9.648l43.136-93.649h3.406l43.139 93.649c2.27 5.108 9.08 9.648 15.32 9.648h19.87c5.67 0 8.51-4.54 6.24-9.648L984.754 79.46c-2.27-5.109-9.081-9.65-15.324-9.65h-27.244c-5.676 0-12.487 4.541-15.325 9.65l-57.893 124.297c-2.27 5.108.567 9.648 6.243 9.648h20.433Z"/><path fill="#7AC3B6" d="M557.365 45.973h20.433c7.379 0 12.487-5.108 12.487-13.054V13.054C590.285 5.108 585.177 0 577.231 0h-20.433c-6.811 0-11.919 5.108-11.919 13.054v20.433c0 7.378 5.108 12.486 12.486 12.486ZM197.518 15.892h-19.297a10.174 10.174 0 0 0-10.217 10.216v174.243c0 21-5.108 45.406-30.082 45.406h-24.406V110.108c0-5.676-4.54-10.216-10.216-10.216H84.002a10.174 10.174 0 0 0-10.216 10.216v135.649H23.838c-5.675 0-12.486 4.54-15.324 9.648L2.27 268.459c-2.27 5.109.568 9.649 6.244 9.649h129.408c51.65 0 69.813-40.297 69.813-77.757V26.108a10.174 10.174 0 0 0-10.217-10.216Zm875.212 253.135-6.24-13.054c-2.27-5.108-9.09-9.649-15.33-9.649H844.562v-34.621a10.175 10.175 0 0 0-10.217-10.217h-19.297a10.175 10.175 0 0 0-10.217 10.217v34.621h-42.569c-24.973 0-30.081-24.973-30.081-45.405V26.676a10.174 10.174 0 0 0-10.217-10.216h-19.298a10.174 10.174 0 0 0-10.216 10.216v174.243c0 37.459 18.162 77.757 69.812 77.757h304.228c5.67 0 8.51-4.541 6.24-9.649ZM567.582 69.811c-59.029 0-80.029 40.297-80.029 78.324v52.216c0 17.595 3.973 32.919 12.487 45.406h-87.408v-97.622c0-38.027-21.001-78.324-80.029-78.324-59.029 0-80.029 40.297-80.029 78.324v52.216c0 22.135 6.811 40.865 19.865 55.054 14.19 15.325 34.623 23.271 60.164 23.271h39.731v13.621c0 34.054-10.217 46.541-39.731 46.541h-15.325a10.173 10.173 0 0 0-10.216 10.216v11.919c0 5.676 4.54 10.216 10.216 10.216h14.757c25.542 0 46.542-7.946 60.732-23.27 13.054-13.622 19.865-32.919 19.865-55.054v-14.757h155.517c25.542 0 45.975-7.946 60.164-23.27 13.054-13.622 19.865-32.919 19.865-55.054v-52.216c-.567-36.892-21.568-77.757-80.596-77.757ZM332.035 246.324c-29.514 0-39.73-12.486-39.73-46.54V149.27c0-34.054 10.784-46.54 39.73-47.108 28.947 0 39.731 13.054 39.731 47.108v97.054h-39.731Zm275.278-46.54c0 34.054-10.217 46.54-39.731 46.54-29.514 0-39.731-12.486-39.731-46.54V149.27c0-34.054 10.784-46.54 39.731-47.108 28.947 0 39.731 13.054 39.731 47.108v50.514ZM489.256 385.378c0-6.81 5.675-12.486 15.324-12.486 7.946 0 13.622 4.54 18.163 6.811 2.838 1.702 6.243 2.27 7.946-1.703l2.838-4.54c1.703-2.838 1.135-5.676-1.703-7.946-4.54-2.838-14.189-9.082-26.676-9.082-19.298 0-34.055 12.487-34.055 30.082 0 31.216 47.677 27.243 47.677 45.972 0 6.811-5.676 12.487-15.325 12.487-10.216 0-17.595-6.243-20.433-8.514-3.405-1.702-6.243-1.702-8.514 1.136l-3.405 4.54c-2.838 3.973-1.703 6.243.567 7.946 5.109 3.973 17.028 11.351 31.217 11.351 21.569 0 34.055-14.756 34.055-30.648 0-31.784-47.676-26.676-47.676-45.406ZM903.59 443.27v-79.459a5.086 5.086 0 0 0-5.108-5.108h-7.946a5.086 5.086 0 0 0-5.108 5.108v90.243a5.086 5.086 0 0 0 5.108 5.108h52.217a5.087 5.087 0 0 0 5.109-5.108v-5.676a5.088 5.088 0 0 0-5.109-5.108H903.59Zm84.57-15.324c2.838 0 6.243-2.27 7.379-4.541l21.001-44.837h1.7l21 44.837c1.14 2.271 4.54 4.541 7.38 4.541h9.65c2.84 0 3.97-2.27 2.84-4.541l-28.38-60.162c-1.14-2.27-4.54-4.54-7.38-4.54h-13.05c-2.84 0-6.25 2.27-7.38 4.54l-27.814 60.162c-1.136 2.271 0 4.541 2.838 4.541h10.216Zm-27.244 26.676c-1.135 2.27 0 4.54 2.838 4.54h106.706c2.84 0 3.97-2.27 2.84-4.54l-2.84-6.244c-1.14-2.837-4.54-4.54-7.38-4.54h-91.947c-2.838 0-6.244 2.27-7.379 4.54l-2.838 6.244Zm-381.415-26.676c2.838 0 6.243-2.27 7.379-4.541l21-44.837h1.703l21 44.837c1.136 2.271 4.541 4.541 7.379 4.541h9.649c2.838 0 3.973-2.27 2.838-4.541l-28.379-60.162c-1.136-2.27-4.541-4.54-7.379-4.54h-13.054c-2.838 0-6.244 2.27-7.379 4.54l-27.811 60.162c-1.136 2.271 0 4.541 2.838 4.541h10.216Zm-27.244 26.676c-1.135 2.27 0 4.54 2.838 4.54H661.8c2.838 0 3.973-2.27 2.838-4.54l-2.838-6.244c-1.135-2.837-4.54-4.54-7.378-4.54h-91.948c-2.838 0-6.244 2.27-7.379 4.54l-2.838 6.244Zm200.924-95.919H744.1c-2.838 0-5.676 2.27-6.811 4.54l-26.677 72.649h-1.702l-26.677-72.649c-1.135-2.838-3.973-4.54-6.811-4.54h-9.081c-2.838 0-4.541 2.27-3.405 4.54l33.487 90.811c1.135 2.838 3.973 4.541 6.811 4.541h12.487c2.838 0 5.676-2.271 6.811-4.541l33.487-90.811c1.135-2.27 0-4.54-2.838-4.54Zm62.434-2.838c-29.514 0-40.298 20.432-40.298 39.162v27.243c0 10.784 3.405 20.433 9.649 27.244 6.811 7.378 17.595 11.351 30.082 11.351 13.054 0 23.27-3.973 30.081-11.351 6.244-6.811 9.649-16.46 9.649-27.244v-27.243c1.135-18.73-9.649-38.595-39.163-39.162Zm22.136 66.405c0 17.595-5.676 23.838-22.136 23.838s-22.136-6.243-22.136-23.838v-26.675c0-17.595 6.244-23.838 22.136-23.838s22.136 6.811 22.136 23.838v26.675Z"/></svg>