<?xml version="1.0" encoding="UTF-8" standalone="no"?>
<!-- Created with Inkscape (http://www.inkscape.org/) -->

<svg
   xmlns:dc="http://purl.org/dc/elements/1.1/"
   xmlns:cc="http://creativecommons.org/ns#"
   xmlns:rdf="http://www.w3.org/1999/02/22-rdf-syntax-ns#"
   xmlns:svg="http://www.w3.org/2000/svg"
   xmlns="http://www.w3.org/2000/svg"
   xmlns:sodipodi="http://sodipodi.sourceforge.net/DTD/sodipodi-0.dtd"
   xmlns:inkscape="http://www.inkscape.org/namespaces/inkscape"
   width="190.91479"
   height="83.299828"
   viewBox="0 0 50.512874 22.039746"
   version="1.1"
   id="svg8"
   inkscape:version="0.92.0 r15299"
   sodipodi:docname="savola.svg">
  <defs
     id="defs2">
    <path
       d="M 0,0 H 189.4 V 81.4 H 0 Z"
       id="SVGID_1_"
       inkscape:connector-curvature="0" />
  </defs>
  <sodipodi:namedview
     id="base"
     pagecolor="#ffffff"
     bordercolor="#666666"
     borderopacity="1.0"
     inkscape:pageopacity="0.0"
     inkscape:pageshadow="2"
     inkscape:zoom="4.2453017"
     inkscape:cx="94.457755"
     inkscape:cy="40.649851"
     inkscape:document-units="mm"
     inkscape:current-layer="layer1"
     showgrid="false"
     fit-margin-top="0"
     fit-margin-left="0"
     fit-margin-right="0"
     fit-margin-bottom="0"
     units="px"
     inkscape:window-width="1280"
     inkscape:window-height="744"
     inkscape:window-x="-4"
     inkscape:window-y="-4"
     inkscape:window-maximized="1" />
  <metadata
     id="metadata5">
    <rdf:RDF>
      <cc:Work
         rdf:about="">
        <dc:format>image/svg+xml</dc:format>
        <dc:type
           rdf:resource="http://purl.org/dc/dcmitype/StillImage" />
        <dc:title></dc:title>
      </cc:Work>
    </rdf:RDF>
  </metadata>
  <g
     inkscape:label="Layer 1"
     inkscape:groupmode="layer"
     id="layer1"
     transform="translate(321.32518,-233.5548)">
    <g
       id="g37"
       transform="translate(0.26458301,-0.26458698)">
      <path
         id="path18"
         clip-path="url(#SVGID_2_)"
         d="m -279.64323,244.0323 c 0.26458,0 0.58208,-0.21166 0.71437,-0.44979 l 2.01084,-4.36562 h 0.15875 l 2.01083,4.36562 c 0.10583,0.23813 0.42333,0.44979 0.71438,0.44979 h 0.92604 c 0.26458,0 0.39687,-0.21166 0.29104,-0.44979 l -2.67229,-5.79437 c -0.10584,-0.23813 -0.42334,-0.4498 -0.71438,-0.4498 h -1.27 c -0.26458,0 -0.58208,0.21167 -0.71437,0.4498 l -2.69875,5.79437 c -0.10584,0.23813 0.0265,0.44979 0.29104,0.44979 z"
         class="st0"
         inkscape:connector-curvature="0"
         style="fill:#64c5b6;stroke-width:0.26458332" />
      <path
         id="path20"
         clip-path="url(#SVGID_2_)"
         d="m -295.4124,236.22709 h 0.9525 c 0.34396,0 0.58209,-0.23812 0.58209,-0.60854 v -0.92604 c 0,-0.37042 -0.23813,-0.60854 -0.60855,-0.60854 h -0.9525 c -0.3175,0 -0.55562,0.23812 -0.55562,0.60854 v 0.9525 c 0,0.34396 0.23812,0.58208 0.58208,0.58208 m -16.77458,-1.40229 h -0.89958 c -0.26459,0 -0.47625,0.21167 -0.47625,0.47625 v 8.12271 c 0,0.97896 -0.23813,2.11667 -1.4023,2.11667 h -1.1377 v -6.32354 c 0,-0.26459 -0.21167,-0.47625 -0.47625,-0.47625 h -0.89959 c -0.26458,0 -0.47625,0.21166 -0.47625,0.47625 v 6.32354 h -2.32833 c -0.26458,0 -0.58208,0.21166 -0.71438,0.44979 l -0.29104,0.60854 c -0.10583,0.23813 0.0265,0.44979 0.29104,0.44979 h 6.0325 c 2.40771,0 3.25438,-1.87854 3.25438,-3.62479 v -8.12271 c 0,-0.26458 -0.21167,-0.47625 -0.47625,-0.47625 m 40.79875,11.80042 -0.29104,-0.60854 c -0.10584,-0.23813 -0.42334,-0.44979 -0.71438,-0.44979 h -9.63083 v -1.61396 c 0,-0.26459 -0.21167,-0.47625 -0.47625,-0.47625 h -0.89958 c -0.26459,0 -0.47625,0.21166 -0.47625,0.47625 v 1.61396 h -1.98438 c -1.16417,0 -1.40229,-1.16417 -1.40229,-2.11667 v -8.12271 c 0,-0.26458 -0.21167,-0.47625 -0.47625,-0.47625 h -0.89958 c -0.26459,0 -0.47625,0.21167 -0.47625,0.47625 v 8.12271 c 0,1.74625 0.84666,3.62479 3.25437,3.62479 h 14.18167 c 0.26458,0 0.39687,-0.21167 0.29104,-0.44979 m -23.54792,-9.28688 c -2.75166,0 -3.73062,1.87855 -3.73062,3.65125 v 2.43417 c 0,0.82021 0.18521,1.53458 0.58208,2.11667 h -4.07458 v -4.55084 c 0,-1.7727 -0.97896,-3.65125 -3.73063,-3.65125 -2.75166,0 -3.73062,1.87855 -3.73062,3.65125 v 2.43417 c 0,1.03188 0.3175,1.905 0.92604,2.56646 0.66146,0.71437 1.61396,1.08479 2.80458,1.08479 h 1.85209 v 0.635 c 0,1.5875 -0.47625,2.16958 -1.85209,2.16958 h -0.71437 c -0.26459,0 -0.47625,0.21167 -0.47625,0.47625 v 0.55563 c 0,0.26458 0.21166,0.47625 0.47625,0.47625 h 0.68791 c 1.19063,0 2.16959,-0.37042 2.83105,-1.08479 0.60854,-0.635 0.92604,-1.53459 0.92604,-2.56646 v -0.68792 h 7.24958 c 1.19063,0 2.14313,-0.37041 2.80458,-1.08479 0.60855,-0.635 0.92605,-1.53458 0.92605,-2.56646 v -2.43416 c -0.0265,-1.7198 -1.00542,-3.6248 -3.75709,-3.6248 m -10.98021,8.22855 c -1.37583,0 -1.85208,-0.58209 -1.85208,-2.16959 v -2.35479 c 0,-1.5875 0.50271,-2.16958 1.85208,-2.19604 1.34938,0 1.85209,0.60854 1.85209,2.19604 v 4.52438 h -1.85209 m 12.8323,-2.16959 c 0,1.5875 -0.47625,2.16959 -1.85209,2.16959 -1.37583,0 -1.85208,-0.58209 -1.85208,-2.16959 v -2.35479 c 0,-1.5875 0.50271,-2.16958 1.85208,-2.19604 1.34938,0 1.85209,0.60854 1.85209,2.19604 z m -5.50334,8.65188 c 0,-0.3175 0.26459,-0.58209 0.71438,-0.58209 0.37041,0 0.635,0.21167 0.84666,0.3175 0.1323,0.0794 0.29105,0.10584 0.37042,-0.0794 l 0.13229,-0.21167 c 0.0794,-0.13229 0.0529,-0.26458 -0.0794,-0.37041 -0.21167,-0.1323 -0.66146,-0.42334 -1.24354,-0.42334 -0.89959,0 -1.5875,0.58209 -1.5875,1.40229 0,1.45521 2.2225,1.27 2.2225,2.14313 0,0.3175 -0.26459,0.58208 -0.71438,0.58208 -0.47625,0 -0.82021,-0.29104 -0.9525,-0.39687 -0.15875,-0.0794 -0.29104,-0.0794 -0.39687,0.0529 l -0.15875,0.21167 c -0.1323,0.18521 -0.0794,0.29104 0.0265,0.37042 0.23813,0.18521 0.79375,0.52916 1.45521,0.52916 1.00542,0 1.5875,-0.68791 1.5875,-1.42875 0,-1.48166 -2.2225,-1.24354 -2.2225,-2.11666 m 19.31459,2.69875 v -3.70417 c 0,-0.13229 -0.10584,-0.23812 -0.23813,-0.23812 h -0.37042 c -0.13229,0 -0.23812,0.10583 -0.23812,0.23812 v 4.20688 c 0,0.13229 0.10583,0.23812 0.23812,0.23812 h 2.43417 c 0.13229,0 0.23813,-0.10583 0.23813,-0.23812 v -0.26459 c 0,-0.13229 -0.10584,-0.23812 -0.23813,-0.23812 z m 3.94229,-0.71438 c 0.13229,0 0.29104,-0.10583 0.34396,-0.21166 l 0.97895,-2.09021 h 0.0794 l 0.97896,2.09021 c 0.0529,0.10583 0.21166,0.21166 0.34396,0.21166 h 0.44979 c 0.13229,0 0.18521,-0.10583 0.13229,-0.21166 l -1.32292,-2.80459 c -0.0529,-0.10583 -0.21166,-0.21166 -0.34396,-0.21166 h -0.60854 c -0.13229,0 -0.29104,0.10583 -0.34396,0.21166 l -1.29645,2.80459 c -0.0529,0.10583 0,0.21166 0.13229,0.21166 z m -1.27,1.24354 c -0.0529,0.10584 0,0.21167 0.13229,0.21167 h 4.97417 c 0.13229,0 0.1852,-0.10583 0.13229,-0.21167 l -0.13229,-0.29104 c -0.0529,-0.13229 -0.21167,-0.21166 -0.34396,-0.21166 h -4.28625 c -0.13229,0 -0.29104,0.10583 -0.34396,0.21166 z m -17.78,-1.24354 c 0.13229,0 0.29104,-0.10583 0.34396,-0.21166 l 0.97895,-2.09021 h 0.0794 l 0.97896,2.09021 c 0.0529,0.10583 0.21166,0.21166 0.34396,0.21166 h 0.44979 c 0.13229,0 0.18521,-0.10583 0.13229,-0.21166 l -1.32292,-2.80459 c -0.0529,-0.10583 -0.21166,-0.21166 -0.34396,-0.21166 h -0.60854 c -0.13229,0 -0.29104,0.10583 -0.34396,0.21166 l -1.29645,2.80459 c -0.0529,0.10583 0,0.21166 0.13229,0.21166 z m -1.27,1.24354 c -0.0529,0.10584 0,0.21167 0.13229,0.21167 h 4.97417 c 0.13229,0 0.1852,-0.10583 0.13229,-0.21167 l -0.13229,-0.29104 c -0.0529,-0.13229 -0.21167,-0.21166 -0.34396,-0.21166 h -4.28625 c -0.13229,0 -0.29104,0.10583 -0.34396,0.21166 z m 9.36625,-4.47145 h -0.42334 c -0.13229,0 -0.26458,0.10583 -0.3175,0.21166 l -1.24354,3.38667 h -0.0794 l -1.24354,-3.38667 c -0.0529,-0.13229 -0.18521,-0.21166 -0.3175,-0.21166 h -0.42334 c -0.13229,0 -0.21166,0.10583 -0.15875,0.21166 l 1.56104,4.23334 c 0.0529,0.13229 0.18521,0.21166 0.3175,0.21166 h 0.58209 c 0.13229,0 0.26458,-0.10583 0.3175,-0.21166 l 1.56104,-4.23334 c 0.0529,-0.10583 0,-0.21166 -0.13229,-0.21166 m 2.91041,-0.1323 c -1.37583,0 -1.87854,0.9525 -1.87854,1.82563 v 1.27 c 0,0.50271 0.15875,0.9525 0.44979,1.27 0.3175,0.34396 0.82021,0.52917 1.4023,0.52917 0.60854,0 1.08479,-0.18521 1.40229,-0.52917 0.29104,-0.3175 0.44979,-0.76729 0.44979,-1.27 v -1.27 c 0.0529,-0.87313 -0.44979,-1.79917 -1.82563,-1.82563 m 1.03188,3.09563 c 0,0.82021 -0.26458,1.11125 -1.03188,1.11125 -0.76729,0 -1.03187,-0.29104 -1.03187,-1.11125 v -1.24354 c 0,-0.82021 0.29104,-1.11125 1.03187,-1.11125 0.74084,0 1.03188,0.3175 1.03188,1.11125 z"
         class="st1"
         inkscape:connector-curvature="0"
         style="fill:#5e6770;stroke-width:0.26458332" />
    </g>
  </g>
  <style
     id="style10">.st0,.st1{clip-path:url(#SVGID_2_);fill:#64c5b6}.st1{fill:#5e6770}</style>
</svg>
