<svg width="84" height="36" viewBox="0 0 84 36" fill="none" xmlns="http://www.w3.org/2000/svg">
<g clip-path="url(#clip0_2263_38)">
<path d="M69.9855 16.6289C70.429 16.6289 70.9613 16.2752 71.183 15.8771L74.5536 8.5798H74.8198L78.1907 15.8771C78.368 16.2752 78.9002 16.6289 79.3877 16.6289H80.9404C81.3834 16.6289 81.6053 16.2752 81.428 15.8771L76.9485 6.19165C76.7712 5.79354 76.239 5.4397 75.7511 5.4397H73.6223C73.1788 5.4397 72.6466 5.79354 72.4248 6.19165L67.9011 15.8771C67.7237 16.2752 67.9454 16.6289 68.3889 16.6289H69.9855Z" fill="#E2DE4E"/>
<path d="M43.5513 3.58231H45.1479C45.7245 3.58231 46.1237 3.18429 46.1237 2.56512V1.01719C46.1237 0.398026 45.7245 0 45.1036 0H43.507C42.9748 0 42.5757 0.398026 42.5757 1.01719V2.60938C42.5757 3.18429 42.9748 3.58231 43.5513 3.58231ZM15.433 1.23834H13.9252C13.8202 1.23789 13.7162 1.25818 13.6192 1.29803C13.5221 1.33788 13.4339 1.3965 13.3597 1.4705C13.2855 1.54451 13.2267 1.63244 13.1867 1.72922C13.1468 1.82601 13.1264 1.92972 13.1268 2.03439V15.6118C13.1268 17.2481 12.7277 19.1499 10.7762 19.1499H8.86917V8.57984C8.86917 8.13756 8.51442 7.78379 8.0709 7.78379H6.56296C6.45801 7.78336 6.35401 7.80366 6.25696 7.84351C6.15992 7.88336 6.07174 7.94198 5.99753 8.01599C5.92332 8.08999 5.86453 8.17792 5.82457 8.2747C5.78461 8.37147 5.76425 8.47518 5.76469 8.57984V19.1499H1.86177C1.41833 19.1499 0.886124 19.5037 0.664364 19.9017L0.17646 20.9189C-0.000916399 21.317 0.220844 21.6708 0.664364 21.6708H10.7762C14.8122 21.6708 16.2314 18.5307 16.2314 15.6118V2.03439C16.2318 1.92972 16.2115 1.82601 16.1715 1.72922C16.1315 1.63244 16.0728 1.54451 15.9985 1.4705C15.9243 1.3965 15.8361 1.33788 15.7391 1.29803C15.642 1.25818 15.538 1.23789 15.433 1.23834ZM83.8217 20.9631L83.3341 19.9459C83.1567 19.5479 82.6238 19.1941 82.1362 19.1941H65.9928V16.4963C65.9932 16.3917 65.9728 16.2879 65.9329 16.1912C65.8929 16.0944 65.8341 16.0064 65.7599 15.9324C65.6857 15.8584 65.5975 15.7998 65.5004 15.7599C65.4034 15.7201 65.2994 15.6998 65.1944 15.7002H63.6866C63.5816 15.6998 63.4776 15.7201 63.3805 15.7599C63.2835 15.7998 63.1953 15.8584 63.1211 15.9324C63.0468 16.0064 62.9881 16.0944 62.9481 16.1912C62.9081 16.2879 62.8878 16.3917 62.8882 16.4963V19.1941H59.5619C57.6105 19.1941 57.2114 17.2481 57.2114 15.656V2.07865C57.2118 1.97398 57.1914 1.87027 57.1515 1.77348C57.1115 1.6767 57.0527 1.58877 56.9785 1.51476C56.9043 1.44076 56.8161 1.38214 56.719 1.34229C56.622 1.30244 56.518 1.28215 56.413 1.2826H54.9051C54.8001 1.28216 54.6961 1.30246 54.5991 1.34231C54.502 1.38216 54.4139 1.44078 54.3396 1.51479C54.2654 1.5888 54.2066 1.67673 54.1667 1.7735C54.1267 1.87028 54.1064 1.97399 54.1068 2.07865V15.656C54.1068 18.5749 55.526 21.715 59.5619 21.715H83.3341C83.7772 21.715 83.9991 21.3612 83.8217 20.9631ZM44.3497 5.43982C39.7372 5.43982 38.0962 8.57984 38.0962 11.543V15.6118C38.0962 16.9828 38.4067 18.1769 39.072 19.1499H32.242V11.543C32.242 8.57984 30.6009 5.43982 25.9885 5.43982C21.376 5.43982 19.7351 8.57984 19.7351 11.543V15.6118C19.7351 17.3366 20.2673 18.7961 21.2873 19.9017C22.3961 21.0958 23.9928 21.715 25.9885 21.715H29.0931V22.7764C29.0931 25.4299 28.2947 26.403 25.9885 26.403H24.791C24.6861 26.4025 24.5821 26.4228 24.485 26.4627C24.388 26.5025 24.2998 26.5611 24.2256 26.6351C24.1514 26.7091 24.0926 26.7971 24.0526 26.8939C24.0127 26.9906 23.9923 27.0944 23.9928 27.199V28.1278C23.9928 28.5701 24.3475 28.9238 24.791 28.9238H25.9441C27.94 28.9238 29.5809 28.3047 30.6897 27.1106C31.7097 26.0491 32.242 24.5455 32.242 22.8207V21.6708H44.394C46.3898 21.6708 47.9864 21.0516 49.0952 19.8575C50.1152 18.7961 50.6474 17.2924 50.6474 15.5676V11.4988C50.6031 8.6241 48.9621 5.43982 44.3497 5.43982ZM25.9441 19.1941C23.6379 19.1941 22.8397 18.2211 22.8397 15.5676V11.6314C22.8397 8.97787 23.6823 8.00494 25.9441 7.96068C28.2061 7.96068 29.0487 8.97787 29.0487 11.6314V19.1941H25.9441ZM47.4542 15.5676C47.4542 18.2211 46.6559 19.1941 44.3497 19.1941C42.0435 19.1941 41.2451 18.2211 41.2451 15.5676V11.6314C41.2451 8.97787 42.0878 8.00494 44.3497 7.96068C46.6116 7.96068 47.4542 8.97787 47.4542 11.6314V15.5676ZM38.2293 30.0295C38.2293 29.4988 38.6728 29.0565 39.4267 29.0565C40.0476 29.0565 40.4911 29.4103 40.846 29.5872C41.0677 29.7199 41.3338 29.7641 41.4669 29.4545L41.6886 29.1008C41.8217 28.8796 41.7773 28.6585 41.5556 28.4816C41.2008 28.2605 40.4468 27.7739 39.4711 27.7739C37.9632 27.7739 36.8101 28.7469 36.8101 30.118C36.8101 32.5504 40.5355 32.2408 40.5355 33.7002C40.5355 34.2309 40.092 34.6732 39.338 34.6732C38.5398 34.6732 37.9632 34.1868 37.7414 34.0098C37.4754 33.8772 37.2536 33.8772 37.0761 34.0983L36.8101 34.4521C36.5883 34.7617 36.677 34.9385 36.8544 35.0712C37.2536 35.3808 38.1849 35.9557 39.2937 35.9557C40.9791 35.9557 41.9547 34.8059 41.9547 33.5676C41.9547 31.0909 38.2293 31.4889 38.2293 30.0295ZM70.6052 34.5405V28.3489C70.6054 28.2966 70.5952 28.2447 70.5753 28.1963C70.5553 28.1479 70.5259 28.104 70.4888 28.067C70.4517 28.03 70.4076 28.0006 70.3591 27.9807C70.3105 27.9608 70.2585 27.9507 70.206 27.9509H69.5852C69.5327 27.9507 69.4807 27.9608 69.4321 27.9807C69.3836 28.0006 69.3395 28.03 69.3024 28.067C69.2653 28.104 69.2359 28.1479 69.2159 28.1963C69.196 28.2447 69.1858 28.2966 69.186 28.3489V35.3808C69.1858 35.4332 69.196 35.485 69.2159 35.5334C69.2359 35.5818 69.2653 35.6258 69.3024 35.6628C69.3395 35.6998 69.3836 35.7291 69.4321 35.749C69.4807 35.7689 69.5327 35.7791 69.5852 35.7789H73.6654C73.7178 35.7791 73.7699 35.7689 73.8184 35.749C73.8669 35.7291 73.911 35.6998 73.9481 35.6628C73.9853 35.6258 74.0146 35.5818 74.0346 35.5334C74.0546 35.485 74.0648 35.4332 74.0646 35.3808V34.9385C74.0648 34.8862 74.0546 34.8344 74.0346 34.786C74.0146 34.7376 73.9852 34.6936 73.9481 34.6566C73.911 34.6196 73.8669 34.5903 73.8184 34.5704C73.7699 34.5505 73.7178 34.5403 73.6654 34.5405H70.6052ZM77.2134 33.3464C77.4352 33.3464 77.7013 33.1696 77.79 32.9926L79.431 29.4988H79.5639L81.2048 32.9926C81.2939 33.1696 81.5596 33.3464 81.7815 33.3464H82.5355C82.7574 33.3464 82.8457 33.1696 82.7574 32.9926L80.5398 28.3047C80.4508 28.1278 80.1851 27.9509 79.9632 27.9509H78.9435C78.7215 27.9509 78.4551 28.1278 78.3668 28.3047L76.1934 32.9926C76.1047 33.1696 76.1934 33.3464 76.4152 33.3464H77.2134ZM75.0846 35.4251C74.9959 35.602 75.0846 35.7789 75.3064 35.7789H83.6443C83.8662 35.7789 83.9546 35.602 83.8662 35.4251L83.6443 34.9385C83.5553 34.7175 83.2896 34.5848 83.0677 34.5848H75.883C75.6612 34.5848 75.3951 34.7617 75.3064 34.9385L75.0846 35.4251ZM45.281 33.3464C45.5028 33.3464 45.7688 33.1696 45.8576 32.9926L47.4985 29.4988H47.6316L49.2725 32.9926C49.3613 33.1696 49.6274 33.3464 49.8491 33.3464H50.6031C50.8249 33.3464 50.9136 33.1696 50.8249 32.9926L48.6073 28.3047C48.5186 28.1278 48.2525 27.9509 48.0308 27.9509H47.0107C46.789 27.9509 46.5228 28.1278 46.4341 28.3047L44.261 32.9926C44.1722 33.1696 44.261 33.3464 44.4827 33.3464H45.281ZM43.1522 35.4251C43.0635 35.602 43.1522 35.7789 43.3739 35.7789H51.7118C51.9336 35.7789 52.0223 35.602 51.9336 35.4251L51.7118 34.9385C51.6231 34.7175 51.3571 34.5848 51.1353 34.5848H43.9505C43.7288 34.5848 43.4626 34.7617 43.3739 34.9385L43.1522 35.4251ZM58.8523 27.9509H58.1427C57.921 27.9509 57.6992 28.1278 57.6105 28.3047L55.526 33.9656H55.393L53.3085 28.3047C53.2198 28.0835 52.998 27.9509 52.7762 27.9509H52.0667C51.8449 27.9509 51.7118 28.1278 51.8006 28.3047L54.4173 35.3808C54.5059 35.602 54.7277 35.7347 54.9495 35.7347H55.9252C56.1469 35.7347 56.3687 35.5577 56.4574 35.3808L59.0741 28.3047C59.1627 28.1278 59.0741 27.9509 58.8523 27.9509ZM63.7309 27.7297C61.4247 27.7297 60.582 29.3218 60.582 30.7813V32.9042C60.582 33.7445 60.8481 34.4963 61.336 35.0271C61.8682 35.602 62.7108 35.9116 63.6866 35.9116C64.7066 35.9116 65.5049 35.602 66.0371 35.0271C66.525 34.4963 66.791 33.7445 66.791 32.9042V30.7813C66.8797 29.3218 66.0371 27.7739 63.7309 27.7297ZM65.4606 32.9042C65.4606 34.2752 65.017 34.7617 63.7309 34.7617C62.4447 34.7617 62.0012 34.2752 62.0012 32.9042V30.8256C62.0012 29.4545 62.4891 28.9681 63.7309 28.9681C64.9727 28.9681 65.4606 29.4988 65.4606 30.8256V32.9042Z" fill="#7AC3B6"/>
</g>
<defs>
<clipPath id="clip0_2263_38">
<rect width="84" height="36" fill="white"/>
</clipPath>
</defs>
</svg>
