<svg width="45" height="48" viewBox="0 0 45 48" fill="none" xmlns="http://www.w3.org/2000/svg">
<path d="M19.8587 21.2803C19.4443 20.8659 18.7813 20.8659 18.3669 21.2803C17.9526 21.6946 17.9526 22.3576 18.3669 22.772L19.9416 24.3467C20.3559 24.761 21.0189 24.761 21.4333 24.3467C21.8477 23.9323 21.8477 23.2693 21.4333 22.8549L19.8587 21.2803Z" fill="#212121"/>
<path d="M10.3279 32.4683C9.91355 32.0539 9.25055 32.0539 8.83617 32.4683C8.4218 32.8826 8.4218 33.5456 8.83617 33.96L11.2396 36.3634C11.6539 36.7778 12.3169 36.7778 12.7313 36.3634C13.1457 35.949 13.1457 35.286 12.7313 34.8716L10.3279 32.4683Z" fill="#212121"/>
<path d="M36.0189 16.7221C37.1792 16.7221 38.3395 16.5563 39.4168 16.142C42.8976 14.816 45.301 12.0811 44.9695 9.76056C44.8037 8.51743 43.8092 7.6058 42.4003 7.2743C42.9805 5.69967 42.8147 4.29078 41.986 3.46203C41.1572 2.63328 39.7483 2.46752 38.1737 3.04765C37.8422 1.63877 37.0134 0.644265 35.6874 0.478514C33.4498 0.147012 30.7149 2.5504 29.306 6.03117C28.8916 7.10855 28.7259 8.18593 28.7259 9.42906C26.4054 7.35717 22.8417 7.6058 20.9356 10.0092C20.1069 11.0866 2.28864 33.2972 1.37701 34.3746C-0.612003 36.8608 -0.446252 40.5073 1.87426 42.8279L2.37151 43.3251C4.69202 45.6456 8.25567 45.8114 10.8248 43.8224L35.1902 24.3466C37.4278 22.4405 37.8422 19.0426 36.0189 16.7221ZM42.9805 10.0921C43.1462 11.1694 41.323 13.2413 38.7538 14.2358C37.5107 14.7331 36.0189 14.7331 34.2786 14.5673C37.0134 13.3242 39.6655 11.9153 41.4058 9.26331C42.1517 9.34619 42.8976 9.59481 42.9805 10.0921ZM40.4942 4.95379C40.8257 5.28529 40.7428 6.36267 39.9141 7.77155C38.7538 9.67769 36.9306 10.9208 34.9416 11.9982L36.3504 10.5893C36.7648 10.1749 36.7648 9.51194 36.3504 9.09756C35.9361 8.68318 35.2731 8.68318 34.8587 9.09756L33.3669 10.5893C34.0299 9.26331 34.6929 8.10305 35.5217 7.19142C36.2676 6.44555 37.0134 5.86542 37.6764 5.53392C39.0853 4.78804 40.1627 4.62229 40.4942 4.95379ZM31.2122 6.77705C32.2067 4.12503 34.2786 2.38465 35.3559 2.46752C35.9361 2.5504 36.1018 3.2134 36.1847 3.95928C35.4388 4.45653 34.7758 5.03666 34.1128 5.61679C32.7039 7.02567 31.7094 9.09756 30.8807 11.0866C30.7149 9.51194 30.7149 8.10305 31.2122 6.77705ZM33.8642 22.6891L30.3834 25.424C30.3005 25.2583 30.5492 25.5898 24.665 19.7056C24.2506 19.2912 23.5876 19.2912 23.1732 19.7056C22.7589 20.12 22.7589 20.783 23.1732 21.1974L28.7259 26.75L18.8637 34.6232L15.0515 30.8109C14.6371 30.3965 13.9741 30.3965 13.5597 30.8109C13.1453 31.2253 13.1453 31.8883 13.5597 32.3027L17.2062 35.9492L9.41592 42.1649C7.67554 43.4909 5.27215 43.408 3.69752 41.8334L3.20027 41.3361C1.70851 39.8443 1.54276 37.5238 2.78589 35.8663L6.34953 39.43C6.76391 39.8443 7.42691 39.8443 7.84129 39.43C8.25567 39.0156 8.25567 38.3526 7.84129 37.9382L4.02902 34.1259L11.9022 24.2638L16.6261 28.9877C17.0405 29.402 17.7035 29.402 18.1178 28.9877C18.5322 28.5733 18.5322 27.9103 18.1178 27.4959L13.3939 22.772L22.5102 11.3352C23.7534 9.84344 25.991 9.67769 27.3999 11.0866C28.7259 12.4126 32.7039 16.3906 34.1128 17.7995C35.5217 19.1255 35.3559 21.446 33.8642 22.6891Z" fill="#212121"/>
<path d="M6.68125 14.4017C8.42163 14.4017 9.83052 12.9928 9.83052 11.3353C9.83052 9.59492 8.42163 8.18604 6.68125 8.18604C4.94086 8.18604 3.53198 9.59492 3.53198 11.3353C3.61486 12.9928 4.94086 14.4017 6.68125 14.4017ZM6.68125 10.2579C7.26138 10.2579 7.75863 10.7552 7.75863 11.3353C7.75863 11.9154 7.26138 12.3298 6.68125 12.3298C6.10112 12.3298 5.68674 11.8326 5.68674 11.3353C5.68674 10.7552 6.10112 10.2579 6.68125 10.2579Z" fill="#212121"/>
<path d="M20.6868 42.4133C19.2779 42.4133 18.1177 43.5736 18.1177 44.9825C18.1177 46.3914 19.2779 47.5516 20.6868 47.5516C22.0957 47.5516 23.256 46.3914 23.256 44.9825C23.256 43.5736 22.0957 42.4133 20.6868 42.4133ZM20.6868 45.4797C20.4382 45.4797 20.1896 45.2311 20.1896 44.9825C20.1896 44.7338 20.4382 44.4852 20.6868 44.4852C20.9354 44.4852 21.1841 44.7338 21.1841 44.9825C21.1841 45.2311 20.9354 45.4797 20.6868 45.4797Z" fill="#212121"/>
<path d="M38.2566 26.833C36.2676 26.833 34.6101 28.4905 34.6101 30.4795C34.6101 32.4685 36.2676 34.126 38.2566 34.126C40.2456 34.126 41.9031 32.4685 41.9031 30.4795C41.9031 28.4905 40.2456 26.833 38.2566 26.833ZM38.2566 32.0542C37.4279 32.0542 36.682 31.3912 36.682 30.4795C36.682 29.6508 37.345 28.9049 38.2566 28.9049C39.0854 28.9049 39.8313 29.5679 39.8313 30.4795C39.8313 31.3083 39.1683 32.0542 38.2566 32.0542Z" fill="#212121"/>
<path d="M19.1125 4.04224C19.7092 4.04224 20.1899 4.52291 20.1899 5.11962C20.1899 5.71632 19.7092 6.197 19.1125 6.197C18.5158 6.197 18.0352 5.71632 18.0352 5.11962C18.0352 4.52291 18.5158 4.04224 19.1125 4.04224Z" fill="#212121"/>
<path d="M2.53734 22.6892C3.13404 22.6892 3.61472 23.1699 3.61472 23.7666C3.61472 24.3633 3.13404 24.844 2.53734 24.844C1.94064 24.844 1.45996 24.3633 1.45996 23.7666C1.45996 23.1699 1.94064 22.6892 2.53734 22.6892Z" fill="#212121"/>
<path d="M20.4387 16.8049C20.0243 17.2193 20.0243 17.8823 20.4387 18.2967C20.8531 18.7111 21.5161 18.7111 21.9305 18.2967C22.3448 17.8823 22.3448 17.2193 21.9305 16.8049C21.5161 16.3905 20.8531 16.3905 20.4387 16.8049Z" fill="#212121"/>
<path d="M27.7309 37.5239C27.3166 37.9383 27.3166 38.6013 27.7309 39.0157C28.1453 39.43 28.8083 39.43 29.2227 39.0157C29.6371 38.6013 29.6371 37.9383 29.2227 37.5239C28.8083 37.1095 28.1453 37.1095 27.7309 37.5239Z" fill="#212121"/>
<path d="M42.2341 19.8713C41.8197 20.2857 41.8197 20.9487 42.2341 21.3631C42.6485 21.7775 43.3115 21.7775 43.7259 21.3631C44.1403 20.9487 44.1403 20.2857 43.7259 19.8713C43.3115 19.457 42.6485 19.457 42.2341 19.8713Z" fill="#212121"/>
<path d="M2.53734 2.96484C3.13404 2.96484 3.61472 3.44552 3.61472 4.04222C3.61472 4.63893 3.13404 5.11961 2.53734 5.11961C1.94064 5.11961 1.45996 4.63893 1.45996 4.04222C1.45996 3.44552 1.94064 2.96484 2.53734 2.96484Z" fill="#212121"/>
</svg>
