<svg width="45" height="46" viewBox="0 0 45 46" fill="none" xmlns="http://www.w3.org/2000/svg">
<path d="M33.5715 4.86588V1.41248C33.5715 0.872411 33.1075 0.416016 32.575 0.416016H8.64463C8.10456 0.416016 7.72423 0.872411 7.72423 1.41248V5.01801L3.04617 13.4537C2.97011 13.6059 2.89404 13.758 2.89404 13.9101V44.5875C2.89404 45.1276 3.35805 45.584 3.89051 45.584C5.0391 45.584 28.4294 45.584 27.8969 45.584C27.973 45.584 28.0491 45.584 28.2012 45.5079C28.2012 45.5079 28.1251 45.5079 37.7855 42.5946C38.1659 42.4425 38.4777 42.1382 38.4777 41.6742C38.4777 41.3699 38.4777 12.3812 38.4777 10.9968C38.4777 10.7686 38.4017 10.5404 38.2495 10.3807L33.5715 4.86588ZM26.8168 19.2119C25.6682 19.752 24.3599 19.752 23.1352 18.9077C19.8415 16.7626 16.8445 18.0633 15.696 18.9837C15.6199 19.0598 13.4748 20.7485 10.5615 18.9077C8.34037 17.4472 6.1877 17.6069 4.73484 18.0633V14.7621H26.7483L26.8168 19.2119ZM4.81091 20.2084C5.50311 19.8281 7.26784 19.0598 9.56503 20.5127C10.8658 21.357 12.1741 21.6612 13.3227 21.6612C15.0114 21.6612 16.3121 20.9691 17.0043 20.4366C17.1564 20.2845 17.4607 20.1323 17.8486 19.9802C18.769 19.5999 20.3056 19.3641 22.1463 20.5203C23.7589 21.5167 25.3639 21.6689 26.8244 21.2125C26.8244 22.4371 26.8244 38.9282 26.8244 39.6965H4.81091V20.2084ZM28.7337 26.1111L36.4011 23.8139V37.1559L28.7337 39.4607V26.1111ZM36.4087 21.7373L28.7413 24.0345V14.0699L31.5785 8.93541V16.755C31.5785 17.2951 32.0425 17.7515 32.575 17.7515C33.1151 17.7515 33.5715 17.2951 33.5715 16.755V7.85527L36.4848 11.3087L36.4087 21.7373ZM9.56503 2.34049H31.5709V4.25735H9.56503V2.34049ZM9.1771 6.17421H30.9624L27.2047 12.9213H5.41943L9.1771 6.17421ZM4.81091 41.6818H26.8244V43.5987H4.81091V41.6818ZM28.7337 43.2107V41.3699L36.4011 39.0652V40.9059L28.7337 43.2107Z" fill="#212121"/>
<path d="M16.2366 26.1112C16.0845 25.8069 15.7803 25.6548 15.3923 25.6548C15.0881 25.6548 14.7762 25.8069 14.548 26.1112C13.4755 27.7998 11.1707 29.6406 11.1707 31.7096C11.1707 34.0068 13.0115 35.8476 15.3086 35.8476C17.6058 35.8476 19.4466 34.0068 19.4466 31.7096C19.4466 30.3328 18.3741 28.9484 17.3016 27.7238C17.0049 27.1837 16.617 26.6513 16.2366 26.1112ZM15.4684 34.0068C14.2437 34.0068 13.2473 33.0104 13.2473 31.7857C13.2473 30.8653 14.548 29.4885 15.4684 28.3323C16.3888 29.4809 17.6895 30.9414 17.6895 31.7857C17.6971 33.0104 16.7007 34.0068 15.4684 34.0068Z" fill="#212121"/>
<path d="M4.81052 3.79346C4.81052 2.49274 3.73799 1.4126 2.43726 1.4126C1.13653 1.4126 0.0563965 2.48513 0.0563965 3.79346C0.0563965 5.09419 1.12893 6.17433 2.43726 6.17433C3.73799 6.17433 4.81052 5.1018 4.81052 3.79346ZM2.42965 4.25747C2.20146 4.25747 1.96565 4.02927 1.96565 3.79346C1.96565 3.56527 2.19385 3.33707 2.42965 3.33707C2.65785 3.33707 2.88605 3.56527 2.88605 3.79346C2.89366 4.02166 2.65785 4.25747 2.42965 4.25747Z" fill="#212121"/>
<path d="M42.1602 34.0066C40.5476 34.0066 39.2468 35.3073 39.2468 36.9199C39.2468 38.5325 40.5476 39.8333 42.1602 39.8333C43.7728 39.8333 44.9974 38.5325 44.9974 36.9199C45.0735 35.3149 43.7651 34.0066 42.1602 34.0066ZM42.1602 37.8479C41.6201 37.8479 41.1637 37.3915 41.1637 36.8515C41.1637 36.319 41.6201 35.855 42.1602 35.855C42.7002 35.855 43.1566 36.319 43.1566 36.8515C43.1566 37.3839 42.6926 37.8479 42.1602 37.8479Z" fill="#212121"/>
<path d="M42.8447 15.5305C43.225 15.1501 43.225 14.534 42.8447 14.1537C42.4643 13.7733 41.8482 13.7733 41.4679 14.1537C41.0875 14.534 41.0875 15.1501 41.4679 15.5305C41.8482 15.8347 42.4643 15.8347 42.8447 15.5305Z" fill="#212121"/>
<path d="M31.8824 18.9001C31.5021 19.2804 31.5021 19.8965 31.8824 20.2769C32.2627 20.6572 32.8789 20.6572 33.2668 20.2769C33.6471 19.8965 33.6471 19.2804 33.2668 18.9001C32.8789 18.5958 32.2627 18.5958 31.8824 18.9001Z" fill="#212121"/>
<path d="M39.0102 4.56161C38.6299 4.18128 38.0137 4.18128 37.6334 4.56161C37.2531 4.94194 37.2531 5.55808 37.6334 5.94602C38.0137 6.32635 38.6299 6.32635 39.0102 5.94602C39.3981 5.55808 39.3981 4.94194 39.0102 4.56161Z" fill="#212121"/>
<path d="M0.285248 9.3156C-0.0950825 9.69593 -0.0950825 10.3121 0.285248 10.6924C0.665577 11.0727 1.28171 11.0727 1.66204 10.6924C2.04237 10.3121 2.04237 9.69593 1.66204 9.3156C1.28171 9.01134 0.665577 9.01134 0.285248 9.3156Z" fill="#212121"/>
</svg>
