<svg width="45" height="44" viewBox="0 0 45 44" fill="none" xmlns="http://www.w3.org/2000/svg">
<path d="M38.266 32.0581C37.4993 32.0581 36.8844 32.3618 36.3531 32.8248C35.8141 32.3618 35.2068 32.0581 34.4401 32.0581C32.8308 32.0581 31.5327 33.3562 31.5327 34.9655C31.5327 36.5748 32.8308 37.8729 34.4401 37.8729C35.2068 37.8729 35.8141 37.5692 36.3531 37.1062C36.892 37.5692 37.4993 37.8729 38.266 37.8729C39.8753 37.8729 41.1734 36.5748 41.1734 34.9655C41.1734 33.3638 39.8677 32.0581 38.266 32.0581ZM34.4325 35.8916C33.8935 35.8916 33.4381 35.4361 33.4381 34.8972C33.4381 34.3582 33.9011 33.9027 34.4325 33.9027C34.9715 33.9027 35.4269 34.3582 35.4269 34.8972C35.4345 35.5045 34.9715 35.8916 34.4325 35.8916ZM38.266 35.8916C37.727 35.8916 37.2716 35.4361 37.2716 34.8972C37.2716 34.3582 37.7346 33.9027 38.266 33.9027C38.805 33.9027 39.2604 34.3582 39.2604 34.8972C39.2604 35.5045 38.7974 35.8916 38.266 35.8916Z" fill="#212121"/>
<path d="M23.9496 33.0527H10.5589C10.0199 33.0527 9.56445 33.5158 9.56445 34.0472V36.9546C9.56445 37.4935 10.0199 37.949 10.5589 37.949H23.9496C24.4885 37.949 24.944 37.4859 24.944 36.9546V34.0472C24.8681 33.4399 24.4885 33.0527 23.9496 33.0527ZM22.9551 35.8918H11.4774V34.8974H22.9551V35.8918Z" fill="#212121"/>
<path d="M41.0223 15.8361H39.2611V12.1621C39.2611 9.94546 37.5 8.18433 35.2834 8.18433H3.97773C1.76113 8.18433 0 9.94546 0 12.1621V30.0694C0 32.286 1.76113 34.0472 3.97773 34.0472H5.73887V37.7213C5.73887 39.9379 7.5 41.699 9.7166 41.699H41.0223C43.2389 41.699 45 39.9379 45 37.7213V19.8139C45 17.5973 43.1629 15.8361 41.0223 15.8361ZM43.087 19.8139V21.575H7.65182V19.8139C7.65182 18.6676 8.57034 17.7491 9.7166 17.7491H41.0223C42.1685 17.7491 43.087 18.6676 43.087 19.8139ZM3.97773 32.0583C2.83148 32.0583 1.91296 31.1398 1.91296 29.9935V12.1621C1.91296 11.0158 2.83148 10.0973 3.97773 10.0973H35.2834C36.4297 10.0973 37.3482 11.0158 37.3482 12.1621V15.8361H9.7166C7.5 15.8361 5.73887 17.5973 5.73887 19.8139V32.1342L3.97773 32.0583ZM41.0223 39.7177H9.7166C8.57034 39.7177 7.65182 38.7992 7.65182 37.653V27.3139H22.9555C23.4944 27.3139 23.874 26.8584 23.874 26.3194C23.874 25.7805 23.4185 25.325 22.9555 25.325H7.65182V23.4121H43.087V25.325H30.6073C30.0683 25.325 29.6129 25.7805 29.6129 26.3194C29.6129 26.8584 30.0683 27.3139 30.6073 27.3139H43.0035V37.7213C43.087 38.7992 42.1685 39.7177 41.0223 39.7177Z" fill="#212121"/>
<path d="M40.1794 6.27134C41.7887 6.27134 43.0867 4.97326 43.0867 3.43986C43.0867 1.83055 41.7887 0.532471 40.1794 0.532471C38.57 0.532471 37.272 1.83055 37.272 3.43986C37.3479 4.96567 38.646 6.27134 40.1794 6.27134ZM40.1794 2.44543C40.7183 2.44543 41.1738 2.90089 41.1738 3.43986C41.1738 3.97883 40.7107 4.43429 40.1794 4.43429C39.6404 4.43429 39.1849 3.97883 39.1849 3.43986C39.2608 2.82498 39.6404 2.44543 40.1794 2.44543Z" fill="#212121"/>
<path d="M2.4441 38.7991C1.14603 38.7991 0.0756836 39.8694 0.0756836 41.1675C0.0756836 42.4656 1.14603 43.5435 2.4441 43.5435C3.74218 43.5435 4.82012 42.4732 4.82012 41.1675C4.82012 39.8694 3.74977 38.7991 2.4441 38.7991ZM2.4441 41.6306C2.21637 41.6306 1.98864 41.4028 1.98864 41.1751C1.98864 40.9474 2.21637 40.7196 2.4441 40.7196C2.67184 40.7196 2.89957 40.9474 2.89957 41.1751C2.90716 41.4028 2.67184 41.6306 2.4441 41.6306Z" fill="#212121"/>
<path d="M33.5221 4.3585C34.0611 4.3585 34.5165 3.90303 34.5165 3.36406C34.5165 2.82509 34.0611 2.36963 33.5221 2.36963C32.9831 2.36963 32.5277 2.82509 32.5277 3.36406C32.5201 3.89544 32.9831 4.3585 33.5221 4.3585Z" fill="#212121"/>
<path d="M18.2107 4.3585C18.7497 4.3585 19.2052 3.90303 19.2052 3.36406C19.2052 2.82509 18.7421 2.36963 18.2107 2.36963C17.6718 2.36963 17.2163 2.82509 17.2163 3.36406C17.2163 3.89544 17.6794 4.3585 18.2107 4.3585Z" fill="#212121"/>
<path d="M4.82014 2.44541C5.35911 2.44541 5.81457 1.98235 5.81457 1.45098C5.81457 0.91201 5.35911 0.456543 4.82014 0.456543C4.28117 0.456543 3.90161 0.91201 3.90161 1.45098C3.8257 1.98235 4.28117 2.44541 4.82014 2.44541Z" fill="#212121"/>
<path d="M25.8626 25.4009C25.3236 25.4009 24.8682 25.8563 24.8682 26.3953C24.8682 26.9343 25.3236 27.3897 25.8626 27.3897C26.4016 27.3897 26.857 26.9343 26.857 26.3953C26.7811 25.788 26.4016 25.4009 25.8626 25.4009Z" fill="#212121"/>
<path d="M17.2171 32.0585C17.7561 32.0585 18.2115 31.603 18.2115 31.064C18.2115 30.5251 17.7561 30.1455 17.2171 30.1455C16.6781 30.1455 16.2986 30.6086 16.2986 31.064C16.2986 31.6789 16.6781 32.0585 17.2171 32.0585Z" fill="#212121"/>
<path d="M14.3855 32.0585C14.9245 32.0585 15.38 31.603 15.38 31.064C15.38 30.5251 14.9245 30.1455 14.3855 30.1455C13.8466 30.1455 13.3911 30.6086 13.3911 31.064C13.3911 31.6789 13.8466 32.0585 14.3855 32.0585Z" fill="#212121"/>
<path d="M11.4778 32.0585C12.0168 32.0585 12.4723 31.603 12.4723 31.064C12.4723 30.5251 12.0168 30.1455 11.4778 30.1455C10.9389 30.1455 10.5593 30.6086 10.5593 31.064C10.5593 31.6789 10.9389 32.0585 11.4778 32.0585Z" fill="#212121"/>
</svg>
