<svg width="20" height="20" viewBox="0 0 20 20" fill="none" xmlns="http://www.w3.org/2000/svg">
<path d="M10 5.60059C12.4609 5.60059 14.4921 7.63184 14.4921 10.0928C14.4921 12.5928 12.4609 14.585 10 14.585C7.5 14.585 5.50781 12.5928 5.50781 10.0928C5.50781 7.63184 7.5 5.60059 10 5.60059ZM10 13.0225C11.6016 13.0225 12.8906 11.7334 12.8906 10.0928C12.8906 8.49122 11.6016 7.20214 10 7.20214C8.35937 7.20214 7.07031 8.49122 7.07031 10.0928C7.07031 11.7334 8.39844 13.0225 10 13.0225ZM15.7031 5.44434C15.7031 6.03027 15.2344 6.49903 14.6484 6.49903C14.0625 6.49903 13.5937 6.03027 13.5937 5.44434C13.5937 4.8584 14.0625 4.38964 14.6484 4.38964C15.2344 4.38964 15.7031 4.8584 15.7031 5.44434ZM18.6719 6.49903C18.75 7.94434 18.75 12.2803 18.6719 13.7256C18.5937 15.1319 18.2813 16.3427 17.2656 17.3974C16.25 18.4131 15 18.7256 13.5937 18.8037C12.1484 18.8819 7.8125 18.8819 6.36719 18.8037C4.96094 18.7256 3.75 18.4131 2.69531 17.3974C1.67969 16.3427 1.36719 15.1319 1.28906 13.7256C1.21094 12.2803 1.21094 7.94434 1.28906 6.49903C1.36719 5.09277 1.67969 3.84277 2.69531 2.82714C3.75 1.81153 4.96094 1.49903 6.36719 1.4209C7.8125 1.34277 12.1484 1.34277 13.5937 1.4209C15 1.49903 16.25 1.81153 17.2656 2.82714C18.2813 3.84277 18.5937 5.09277 18.6719 6.49903ZM16.7969 15.249C17.2656 14.1162 17.1484 11.3818 17.1484 10.0928C17.1484 8.84277 17.2656 6.1084 16.7969 4.93653C16.4844 4.19434 15.8984 3.56934 15.1563 3.2959C13.9844 2.82714 11.25 2.94434 10 2.94434C8.71094 2.94434 5.97656 2.82714 4.84374 3.2959C4.0625 3.6084 3.47656 4.19434 3.16406 4.93653C2.69531 6.1084 2.8125 8.84277 2.8125 10.0928C2.8125 11.3818 2.69531 14.1162 3.16406 15.249C3.47656 16.0303 4.0625 16.6161 4.84374 16.9287C5.97656 17.3974 8.71094 17.2803 10 17.2803C11.25 17.2803 13.9844 17.3974 15.1563 16.9287C15.8984 16.6161 16.5234 16.0303 16.7969 15.249Z" fill="#5B6770"/>
</svg>
