<svg width="20" height="20" viewBox="0 0 20 20" fill="none" xmlns="http://www.w3.org/2000/svg">
<path d="M5.15626 18.3066H1.52344V6.62695H5.15626V18.3066ZM3.32031 5.06445C2.1875 5.06445 1.25 4.0879 1.25 2.91601C1.25 1.7832 2.1875 0.845703 3.32031 0.845703C4.49219 0.845703 5.42969 1.7832 5.42969 2.91601C5.42969 4.0879 4.49219 5.06445 3.32031 5.06445ZM18.711 18.3066H15.1171V12.6426C15.1171 11.2754 15.0781 9.55664 13.2031 9.55664C11.3281 9.55664 11.0547 11.002 11.0547 12.5254V18.3066H7.42187V6.62695H10.8984V8.22851H10.9375C11.4453 7.33008 12.6172 6.35351 14.375 6.35351C18.0469 6.35351 18.75 8.7754 18.75 11.9004V18.3066H18.711Z" fill="#5B6770"/>
</svg>
