<svg width="36" height="36" viewBox="0 0 36 36" fill="none" xmlns="http://www.w3.org/2000/svg">
<path d="M33 0H2.75C2.02065 0 1.32118 0.289731 0.805456 0.805456C0.289731 1.32118 0 2.02065 0 2.75V33C0 33.7293 0.289731 34.4288 0.805456 34.9445C1.32118 35.4603 2.02065 35.75 2.75 35.75H33C33.7293 35.75 34.4288 35.4603 34.9445 34.9445C35.4603 34.4288 35.75 33.7293 35.75 33V2.75C35.75 2.02065 35.4603 1.32118 34.9445 0.805456C34.4288 0.289731 33.7293 0 33 0ZM33 33H2.75V2.75H33V33ZM12.375 15.125V26.125C12.375 26.4897 12.2301 26.8394 11.9723 27.0973C11.7144 27.3551 11.3647 27.5 11 27.5C10.6353 27.5 10.2856 27.3551 10.0277 27.0973C9.76987 26.8394 9.625 26.4897 9.625 26.125V15.125C9.625 14.7603 9.76987 14.4106 10.0277 14.1527C10.2856 13.8949 10.6353 13.75 11 13.75C11.3647 13.75 11.7144 13.8949 11.9723 14.1527C12.2301 14.4106 12.375 14.7603 12.375 15.125ZM27.5 19.9375V26.125C27.5 26.4897 27.3551 26.8394 27.0973 27.0973C26.8394 27.3551 26.4897 27.5 26.125 27.5C25.7603 27.5 25.4106 27.3551 25.1527 27.0973C24.8949 26.8394 24.75 26.4897 24.75 26.125V19.9375C24.75 19.0258 24.3878 18.1515 23.7432 17.5068C23.0985 16.8622 22.2242 16.5 21.3125 16.5C20.4008 16.5 19.5265 16.8622 18.8818 17.5068C18.2372 18.1515 17.875 19.0258 17.875 19.9375V26.125C17.875 26.4897 17.7301 26.8394 17.4723 27.0973C17.2144 27.3551 16.8647 27.5 16.5 27.5C16.1353 27.5 15.7856 27.3551 15.5277 27.0973C15.2699 26.8394 15.125 26.4897 15.125 26.125V15.125C15.1267 14.7882 15.252 14.4637 15.477 14.2132C15.7021 13.9626 16.0113 13.8033 16.346 13.7656C16.6806 13.7279 17.0175 13.8143 17.2927 14.0085C17.5679 14.2027 17.7623 14.4911 17.8389 14.8191C18.7691 14.1881 19.8535 13.8224 20.9759 13.7612C22.0982 13.7001 23.216 13.9458 24.2092 14.472C25.2024 14.9982 26.0335 15.785 26.6133 16.7479C27.1931 17.7108 27.4996 18.8135 27.5 19.9375ZM13.0625 10.3125C13.0625 10.7204 12.9415 11.1192 12.7149 11.4584C12.4883 11.7975 12.1662 12.0619 11.7893 12.218C11.4124 12.3741 10.9977 12.415 10.5976 12.3354C10.1975 12.2558 9.83004 12.0594 9.54159 11.7709C9.25315 11.4825 9.05671 11.115 8.97713 10.7149C8.89755 10.3148 8.93839 9.90009 9.0945 9.52322C9.2506 9.14634 9.51496 8.82422 9.85414 8.59759C10.1933 8.37096 10.5921 8.25 11 8.25C11.547 8.25 12.0716 8.4673 12.4584 8.85409C12.8452 9.24089 13.0625 9.76549 13.0625 10.3125Z" fill="white"/>
</svg>
